<?xml version="1.0" encoding="utf-8"?>
<!-- Generator: Adobe Illustrator 15.1.0, SVG Export Plug-In . SVG Version: 6.00 Build 0)  -->
<!DOCTYPE svg PUBLIC "-//W3C//DTD SVG 1.1//EN" "http://www.w3.org/Graphics/SVG/1.1/DTD/svg11.dtd">
<svg version="1.1" id="Layer_2" xmlns="http://www.w3.org/2000/svg" xmlns:xlink="http://www.w3.org/1999/xlink" x="0px" y="0px"
	 width="84.75px" height="28.5px" viewBox="0 0 84.75 28.5" enable-background="new 0 0 84.75 28.5" xml:space="preserve">
<rect x="1.418" y="1.348" fill="#C2C1C1" width="82.164" height="15.375"/>
<g>
	<path fill="#FFFFFF" d="M16.065,9.196c0-2.006,0.543-3.577,1.629-4.712s2.488-1.703,4.207-1.703c1.125,0,2.14,0.267,3.043,0.8
		s1.592,1.277,2.066,2.231c0.474,0.954,0.711,2.035,0.711,3.245c0,1.226-0.25,2.323-0.749,3.291s-1.206,1.7-2.12,2.198
		c-0.914,0.497-1.901,0.746-2.959,0.746c-1.147,0-2.173-0.274-3.076-0.824c-0.903-0.55-1.588-1.3-2.053-2.251
		C16.298,11.263,16.065,10.257,16.065,9.196z M17.729,9.221c0,1.457,0.395,2.604,1.184,3.443c0.79,0.838,1.78,1.257,2.972,1.257
		c1.214,0,2.213-0.423,2.998-1.27c0.784-0.847,1.176-2.048,1.176-3.604c0-0.984-0.167-1.843-0.503-2.577s-0.826-1.303-1.471-1.707
		c-0.646-0.404-1.371-0.606-2.174-0.606c-1.142,0-2.124,0.389-2.947,1.167C18.14,6.103,17.729,7.401,17.729,9.221z"/>
	<path fill="#FFFFFF" d="M29.733,15.084V2.995h1.613v10.663h6.002v1.427H29.733z"/>
	<path fill="#FFFFFF" d="M41.106,15.084V4.421H37.09V2.995h9.66v1.427h-4.031v10.663H41.106z"/>
	<path fill="#FFFFFF" d="M48.438,15.084V2.995h8.813v1.427h-7.199v3.703h6.742v1.418h-6.742v4.115h7.482v1.427H48.438z"/>
	<path fill="#FFFFFF" d="M68.457,10.845l1.612,0.404c-0.338,1.314-0.946,2.316-1.824,3.005c-0.879,0.69-1.952,1.035-3.222,1.035
		c-1.313,0-2.382-0.265-3.205-0.796c-0.823-0.53-1.449-1.299-1.879-2.305s-0.645-2.086-0.645-3.241c0-1.259,0.243-2.357,0.728-3.294
		c0.485-0.938,1.176-1.649,2.07-2.136c0.896-0.487,1.881-0.73,2.956-0.73c1.219,0,2.244,0.308,3.075,0.923
		c0.832,0.616,1.411,1.482,1.737,2.598l-1.588,0.371c-0.282-0.879-0.692-1.52-1.23-1.921c-0.537-0.401-1.213-0.602-2.028-0.602
		c-0.936,0-1.72,0.223-2.348,0.668c-0.629,0.445-1.071,1.043-1.326,1.794s-0.383,1.524-0.383,2.321c0,1.028,0.151,1.925,0.453,2.692
		s0.771,1.34,1.409,1.719s1.327,0.569,2.069,0.569c0.904,0,1.669-0.258,2.295-0.775C67.811,12.629,68.235,11.862,68.457,10.845z"/>
	<path fill="#FFFFFF" d="M72.107,15.084V2.995h1.612v4.964h6.336V2.995h1.612v12.089h-1.612V9.386H73.72v5.698H72.107z"/>
</g>
<g>
	<path fill="#1EA5E0" d="M39.01,24.613l0.85-0.072c0.04,0.335,0.134,0.61,0.28,0.825c0.147,0.215,0.375,0.389,0.685,0.521
		c0.31,0.132,0.657,0.198,1.044,0.198c0.344,0,0.646-0.05,0.909-0.15c0.265-0.101,0.459-0.238,0.588-0.414
		c0.128-0.176,0.192-0.366,0.192-0.574c0-0.21-0.063-0.394-0.185-0.551c-0.124-0.157-0.328-0.289-0.614-0.396
		c-0.183-0.07-0.586-0.179-1.211-0.327c-0.625-0.147-1.063-0.287-1.314-0.418c-0.325-0.168-0.567-0.376-0.727-0.625
		c-0.159-0.248-0.239-0.526-0.239-0.834c0-0.339,0.098-0.655,0.292-0.949s0.48-0.518,0.854-0.67
		c0.375-0.152,0.791-0.229,1.249-0.229c0.504,0,0.949,0.08,1.335,0.24c0.385,0.16,0.681,0.396,0.888,0.706
		c0.208,0.312,0.319,0.663,0.335,1.057l-0.863,0.064c-0.046-0.424-0.204-0.744-0.472-0.961c-0.268-0.216-0.663-0.324-1.186-0.324
		c-0.545,0-0.942,0.098-1.191,0.295c-0.249,0.196-0.374,0.434-0.374,0.711c0,0.241,0.088,0.439,0.265,0.595
		c0.173,0.155,0.626,0.314,1.358,0.478s1.234,0.306,1.506,0.428c0.396,0.18,0.688,0.407,0.877,0.684
		c0.188,0.276,0.284,0.594,0.284,0.953c0,0.357-0.104,0.693-0.312,1.009s-0.506,0.561-0.895,0.736
		c-0.388,0.175-0.825,0.263-1.311,0.263c-0.616,0-1.132-0.089-1.548-0.266s-0.743-0.442-0.979-0.798
		C39.146,25.464,39.022,25.062,39.01,24.613z"/>
	<path fill="#1EA5E0" d="M47.575,26.768v-2.84l-2.623-3.864h1.095l1.343,2.021c0.247,0.378,0.478,0.756,0.69,1.134
		c0.204-0.351,0.452-0.745,0.744-1.185l1.317-1.971h1.05l-2.717,3.864v2.84H47.575z"/>
	<path fill="#1EA5E0" d="M51.691,24.613l0.85-0.072c0.04,0.335,0.134,0.61,0.281,0.825c0.146,0.215,0.375,0.389,0.685,0.521
		c0.31,0.132,0.657,0.198,1.044,0.198c0.344,0,0.647-0.05,0.91-0.15c0.264-0.101,0.459-0.238,0.588-0.414
		c0.128-0.176,0.192-0.366,0.192-0.574c0-0.21-0.063-0.394-0.186-0.551c-0.124-0.157-0.328-0.289-0.613-0.396
		c-0.183-0.07-0.586-0.179-1.212-0.327c-0.624-0.147-1.063-0.287-1.313-0.418c-0.325-0.168-0.567-0.376-0.727-0.625
		c-0.159-0.248-0.239-0.526-0.239-0.834c0-0.339,0.098-0.655,0.293-0.949s0.479-0.518,0.854-0.67
		c0.374-0.152,0.79-0.229,1.248-0.229c0.505,0,0.949,0.08,1.335,0.24c0.385,0.16,0.682,0.396,0.889,0.706
		c0.207,0.312,0.319,0.663,0.335,1.057l-0.863,0.064c-0.047-0.424-0.204-0.744-0.473-0.961c-0.268-0.216-0.663-0.324-1.186-0.324
		c-0.545,0-0.941,0.098-1.19,0.295c-0.25,0.196-0.373,0.434-0.373,0.711c0,0.241,0.088,0.439,0.265,0.595
		c0.172,0.155,0.625,0.314,1.356,0.478c0.732,0.163,1.234,0.306,1.507,0.428c0.396,0.18,0.688,0.407,0.878,0.684
		c0.188,0.276,0.283,0.594,0.283,0.953c0,0.357-0.104,0.693-0.312,1.009s-0.505,0.561-0.894,0.736
		c-0.388,0.175-0.825,0.263-1.311,0.263c-0.617,0-1.133-0.089-1.549-0.266s-0.742-0.442-0.979-0.798
		C51.828,25.464,51.704,25.062,51.691,24.613z"/>
	<path fill="#1EA5E0" d="M60.071,26.768v-5.913h-2.242v-0.791h5.394v0.791h-2.251v5.913H60.071z"/>
	<path fill="#1EA5E0" d="M64.166,26.768v-6.704h4.92v0.791h-4.021v2.054h3.766v0.786h-3.766v2.282h4.179v0.791H64.166z"/>
	<path fill="#1EA5E0" d="M70.461,26.768v-6.704h1.354l1.611,4.747c0.148,0.441,0.257,0.772,0.325,0.992
		c0.077-0.244,0.198-0.603,0.361-1.075l1.63-4.664h1.212v6.704h-0.869v-5.611l-1.978,5.611h-0.812l-1.969-5.707v5.707H70.461z"/>
	<path fill="#1EA5E0" d="M78.101,24.613l0.85-0.072c0.04,0.335,0.134,0.61,0.28,0.825s0.376,0.389,0.686,0.521
		c0.309,0.132,0.657,0.198,1.044,0.198c0.344,0,0.646-0.05,0.909-0.15c0.264-0.101,0.459-0.238,0.588-0.414
		c0.128-0.176,0.192-0.366,0.192-0.574c0-0.21-0.063-0.394-0.185-0.551c-0.124-0.157-0.328-0.289-0.614-0.396
		c-0.183-0.07-0.586-0.179-1.211-0.327c-0.625-0.147-1.063-0.287-1.313-0.418c-0.325-0.168-0.567-0.376-0.727-0.625
		c-0.16-0.248-0.239-0.526-0.239-0.834c0-0.339,0.097-0.655,0.292-0.949s0.48-0.518,0.854-0.67s0.79-0.229,1.248-0.229
		c0.505,0,0.95,0.08,1.336,0.24c0.385,0.16,0.681,0.396,0.888,0.706c0.207,0.312,0.319,0.663,0.335,1.057l-0.863,0.064
		c-0.046-0.424-0.204-0.744-0.472-0.961c-0.268-0.216-0.663-0.324-1.186-0.324c-0.545,0-0.941,0.098-1.19,0.295
		c-0.25,0.196-0.374,0.434-0.374,0.711c0,0.241,0.089,0.439,0.265,0.595c0.173,0.155,0.626,0.314,1.357,0.478
		c0.732,0.163,1.234,0.306,1.507,0.428c0.396,0.18,0.688,0.407,0.877,0.684c0.188,0.276,0.284,0.594,0.284,0.953
		c0,0.357-0.104,0.693-0.312,1.009s-0.506,0.561-0.895,0.736c-0.388,0.175-0.824,0.263-1.311,0.263
		c-0.616,0-1.132-0.089-1.548-0.266c-0.417-0.177-0.743-0.442-0.979-0.798C78.237,25.464,78.112,25.062,78.101,24.613z"/>
</g>
<g>
	<path fill="#72706F" d="M14.743,15.117h-4.429l-1.901-4.648H7.153v4.648H3.157V2.961h6.798c1.5,0,2.666,0.328,3.495,0.984
		c0.83,0.656,1.245,1.521,1.245,2.596c0,0.701-0.153,1.32-0.458,1.857c-0.306,0.537-0.921,1.011-1.85,1.42L14.743,15.117z
		 M7.153,7.868h1.706c0.502,0,0.906-0.098,1.211-0.294c0.305-0.195,0.457-0.483,0.457-0.863c0-0.777-0.512-1.167-1.535-1.167h-1.84
		V7.868z"/>
</g>
</svg>
